<?xml version="1.0" encoding="utf-8"?>
<!-- Generator: Adobe Illustrator 19.1.0, SVG Export Plug-In . SVG Version: 6.00 Build 0)  -->
<svg version="1.1" id="Layer_1" xmlns="http://www.w3.org/2000/svg" xmlns:xlink="http://www.w3.org/1999/xlink" x="0px" y="0px"
	 viewBox="0 0 41.4 72.8" width="47px" height="85px" style="enable-background:new 0 0 41.4 72.8;" xml:space="preserve">
<style type="text/css">
	.st0{fill:#FFFFFF;}
	.st1{fill:#004987;}
	.st2{fill:#231F20;}
</style>
<path class="st0" d="M20.2,71.5C7.4,66.6,3.3,56.3,2.9,55.3c-1.9-4.3-2-9.7-2-10.7V26.5h10.6c-0.1-0.2-0.2-0.5-0.2-0.6
	c-0.2-2,1.3-2.6,2.4-3c0.9-0.4,1.8-0.7,2.3-1.6c0.6-1.4,1.4-2.3,2.1-3c0.5-0.6,0.9-1,0.9-1.4c0-0.1-0.4-0.3-0.6-0.3
	c-0.3,0.1-0.8,0.2-1.3,0.2c0,0,0,0,0,0c-0.3,0.2-0.7,0.5-1.2,0.6c-0.2,0-0.4,0.1-0.6,0.1c-0.6,0-1.1-0.1-1.3-0.2
	c-0.6-0.2-0.9-0.6-1-0.9c-0.1-0.2-0.1-0.4-0.1-0.6c-0.3-0.4-0.5-0.7-0.5-0.8c-0.2-0.7-0.1-1.1,0.1-1.4c0.3-0.4,0.7-0.6,1-0.7
	c1.1-0.3,2.6-1.3,2.8-1.5l0.2-0.2c0.1-0.1,0.2-0.1,0.2-0.2c0-0.4,0.1-0.7,0.3-1c-0.5-0.7-0.5-1.3-0.6-1.5l0-0.1l0-0.2
	c0-0.2,0.2-0.9,1.2-0.9c0.5,0,1.3,0.2,2.1,0.6c0.2-0.4,0.4-0.8,0.5-0.9c0,0,0.6-1.3,0.9-1.9C23,1.6,24.5,0,25.6,0
	c0.3,0,0.7,0.2,0.9,0.4c0.3,0.4,0.3,0.5-0.3,1.8c0.4-0.4,0.9-0.8,1.3-1c0.2-0.1,0.5-0.3,0.8-0.3h0.4L29,1.2l0.2,0.2l0.1,0.3
	c0.1,0.6-0.2,1.4-1.1,2.6l0,0.1c-0.4,0.5-1.4,2-1.8,3.2c0,0-0.7,1.5-0.8,1.8c0.2,0,0.4,0,0.6,0c1.2,0,2,0.3,2.5,0.8
	c0.1,0.2,0.4,0.5,0.3,0.9c-0.1,0.7-0.8,0.9-1.3,1c-0.1,0-0.2,0-0.3,0.1c-0.4,0.5-0.9,0.8-1.2,1.1c0.8,1,1.3,2.3,1.3,2.3
	c0.6,2.4,0.1,3.8-0.2,4.7l-0.1,0.3c-0.2,0.7,0,1.2,0.3,1.4c0.1,0.1,0.3,0.2,0.6,0.4c0.9,0.5,2.2,1.3,2.4,3.4c0,0.3,0,0.5-0.1,0.8
	h10.4v18.1c0,1.1-0.1,6.5-2,10.8c-0.4,1-4.7,11.3-17.3,16.1l-0.6,0.2L20.2,71.5z"/>
<g>
	<path class="st1" d="M39,44.6c0,0,0.1,5.8-1.9,10.1c0,0-3.7,10.4-16.3,15.3C8.1,65.2,4.4,54.8,4.4,54.8c-2-4.4-1.9-10.1-1.9-10.1
		v-9.1H39L39,44.6z"/>
	<g>
		<path class="st0" d="M38.9,46.2L38.9,46.2c0-0.5,0-0.9,0-1.2l0,0.1V46.2z"/>
		<path class="st0" d="M25,36.2h-6.7v2.6l-2-1.6v4.3l2,1.6v3l-1.6-2h-4.3l1.6,2h-3.8l-1.6-2H4.3l1.6,2H2.6c0.1,1.7,0.4,4.5,1.3,7.2
			h2.6l1.6-2h3.8l-1.6,2h4.3l1.6-2h2.3v0.8l-2,1.6v4.3l2-1.6v3.8l-2,1.6v4.3l2-1.6V69c0.8,0.4,1.6,0.7,2.4,1c1-0.4,1.9-0.8,2.8-1.2
			v-2.7l2,1.5v-4.3l-2-1.5V58l2,1.5v-4.3l-2-1.5v-2.3h0l1.5,2h4.3l-1.5-2h3.8l1.5,2h4.3l-1.5-2h2.2c0.5-2,0.7-3.9,0.7-5.2h0v-1.1
			l0-0.1c0-0.2,0-0.4,0-0.4v-0.4h-3.7l-1.6,2h-3.8l1.6-2h-4.3l-1.6,2h-2.1v-0.7l2-1.5v-4.3l-2,1.6v-3.8L25,36.2z"/>
	</g>
	<g>
		<path class="st2" d="M39.6,44.6V27.5H1.9v17.1c0,0.2-0.1,6,1.9,10.4c0,0.1,3.9,10.7,16.7,15.6l0.2,0.1l0.2-0.1
			C33.8,65.7,37.6,55.1,37.7,55C39.7,50.6,39.6,44.9,39.6,44.6z M38.4,44.6c0,0.2,0,5.8-1.8,9.9c0,0.1-3.7,10.1-15.8,14.8
			C8.9,64.7,5.1,55,5,54.5c-1.9-4.2-1.8-9.8-1.8-9.9v-8.4h35.2V44.6z"/>
	</g>
	<g>
		<path class="st0" d="M11.1,30c0.6-0.2,1.1-0.5,1.6-0.8h1.1v5.4h-1.3v-4.2c-0.3,0.2-0.8,0.5-1.4,0.7V30z"/>
		<path class="st0" d="M15.9,30.6c0-0.7,0.6-1.5,2.1-1.5c1.2,0,2.1,0.6,2.1,1.5c0,0.7-0.6,1.1-1.2,1.2c0.2,0.1,0.7,0.2,1,0.6
			c0.2,0.3,0.3,0.5,0.3,0.8c0,1-1,1.6-2.2,1.6c-1.2,0-2.1-0.7-2.1-1.6c0-0.4,0.2-0.7,0.4-1c0.3-0.3,0.6-0.3,0.8-0.4
			C16.8,31.7,15.9,31.4,15.9,30.6z M18.9,33c0-0.5-0.4-0.8-0.9-0.8c-0.5,0-0.9,0.3-0.9,0.8c0,0.6,0.5,0.8,0.9,0.8
			C18.4,33.8,18.9,33.6,18.9,33z M18.8,30.6c0-0.4-0.4-0.7-0.8-0.7c-0.4,0-0.8,0.3-0.8,0.7c0,0.4,0.3,0.7,0.8,0.7
			C18.5,31.3,18.8,31,18.8,30.6z"/>
		<path class="st0" d="M21.1,33.4v-1.1l2.4-3.2h1.3l0,3.4h0.8v0.9h-0.8v1.2h-1.3v-1.2H21.1z M22.1,32.5h1.5v-1.4c0-0.1,0-0.5,0-0.6
			L22.1,32.5z"/>
		<path class="st0" d="M26.7,29.2h4.1v1l-2.1,4.5h-1.4l2.2-4.5h-2.8V29.2z"/>
	</g>
	<g>
		<path class="st2" d="M28.7,26.8c0.4,0,0.7-0.4,0.6-1c-0.3-2.3-1.9-2.5-2.7-3.2c-0.2-0.2-1-1-0.6-2.4c0.2-0.8,0.9-2,0.3-4.4
			c-0.1-0.2-0.7-1.9-1.8-2.6c0-0.1-0.3-0.2,0.2-0.4c0.1,0,1-0.4,1.9-1.4c0.2-0.2,1.3-0.3,1.3-0.4c0-0.1-0.3-1.1-3.7-0.5
			c0,0-0.2-0.1-0.3-0.1c0.2-0.4,1-2.3,1.4-3.1c0.6-1.4,1.7-3.1,2-3.5c0.9-1.1,1-1.6,0.9-1.8c-0.1-0.1-0.2,0-0.3,0.1
			c-2.5,1.4-4.8,6.2-5.4,7.7c0,0-0.4-0.3-0.7-0.3c0.4-1.6,1.7-4.2,1.8-4.3c0.1-0.4,2.2-4.1,2.1-4.2c-0.1-0.2-1.3,0.2-3.8,4.4
			c-0.3,0.5-0.8,1.6-0.9,1.8c0,0.1-1,2.1-1,2.1c-0.7-1.1-2.6-1.2-2.7-1c0,0.1,0,0.7,0.5,1.3C18,9.6,18.3,10,18.2,10
			c0,0-0.5,0.4-0.6,1.1c0,0.4-0.4,0.6-0.7,1c-0.1,0.1-1.7,1.3-3.2,1.7c0,0-0.6,0.1-0.4,0.8c0.1,0.2,0.5,0.9,0.9,0.9
			c0.1,0-0.3,0.1-0.3,0.2c0,0.1-0.1,0.5,0.5,0.7c0.1,0.1,0.7,0.2,1.3,0.1c0.5-0.1,1-0.6,1.2-0.6c0.4,0.1,1.1-0.1,1.4-0.2
			c0.4-0.1,1.8,0.5,1.7,1.3c-0.1,1.4-1.9,2.2-3.1,4.7c-1.4,2.6-4.9,1.7-4.6,4c0,0.1,0.4,1,1.6,1L28.7,26.8z"/>
		<g>
			<g>
				<path class="st0" d="M21.7,22.7c0.5-0.1,2-0.5,2.9-1.3c0.3-0.3,0.4-0.2,0.4-0.1c0,0,1.4,3.6-3.8,3c-2.5-0.3-6.7,0.5-6.8,0.2
					c-0.1-0.4,2.6-0.1,4.5-3.7c0.7-1.4,2.6-2,3.1-3.3c0.3-0.8,0-2.5-0.4-2.7c0,0.1-0.6,1.4-1.8,0.7c-0.2-0.1-1.1-0.7-1.5-0.4
					c-0.2,0.1-1,0.3-1.3,0.3c-0.1,0-0.8,1-1.9,0.8c-0.2,0-0.6-0.2-0.5-0.4c0.1-0.1,0.2-0.1,0.2-0.1s0.1-0.1,0.3,0
					c0.2,0,0.4-0.1,0.7-0.2c0.1,0,0.1-0.4-0.2-0.2c-0.3,0.2-0.7,0.1-0.7,0.1s-0.3-0.5-0.1-0.5c0.2,0,0.7-0.2,0.8-0.6
					c0-0.2,0.1-0.2-0.2-0.1c-0.3,0.1-0.7,0.4-0.8-0.1c0,0,3.4-1.1,3.8-2.2c0.7-1.7,1.7-2.5,3.6-1.6c0.1,0,1.2-0.1,1.7,0.8
					c0.6,1.2-1.2,1.3-1.5,1.2c-0.1,0-1.2-2.8-3.1,0.5c-0.1,0.2-0.6,0.7-2.1,1.1c0,0-0.4,0.1-0.1,0.3c0.1,0,0.3,0,0.6-0.1
					c0.2-0.1,2.1,0.1,3.5-0.7c0.1-0.1,0.9-0.5,1-0.5c0.2,0,2.1-0.1,1.6,1.9c0,0.1,0.1,0,0.1,0c0.2-0.1,0.6-0.6,0.6-0.7
					c0,0,0.7,2.3-1.3,4c0,0,0,0.1,0.1,0.1c0.1,0,1-0.5,1.7-1.2c0,0,0.1,0,0.1,0.2c0,1.4-0.4,3.4-3.4,5.3
					C21.2,22.7,21.3,22.8,21.7,22.7z"/>
			</g>
			<path class="st0" d="M19.9,12.1c0,0,0.2,0.4,0.4,0.4c0.1,0,0.3-0.2,0.4-0.4c0-0.1,0-0.2-0.4-0.2C20,11.9,19.9,12,19.9,12.1"/>
			<path class="st0" d="M20.9,12.4c-0.9,0.7-1.2-0.2-1.2-0.2C19.9,13.2,20.8,12.7,20.9,12.4"/>
		</g>
	</g>
</g>
</svg>
